# Blender v3.6.9 OBJ File: ''
# www.blender.org
mtllib reduced_torus.mtl
o Torus
v 1.250000 0.000000 0.000000
v 0.875000 0.216506 0.000000
v 0.875000 -0.216506 0.000000
v 1.082532 0.000000 -0.625000
v 0.757772 0.216506 -0.437500
v 0.757772 -0.216506 -0.437500
v 0.625000 0.000000 -1.082532
v 0.437500 0.216506 -0.757772
v 0.437500 -0.216506 -0.757772
v 0.000000 0.000000 -1.250000
v 0.000000 0.216506 -0.875000
v 0.000000 -0.216506 -0.875000
v -0.625000 0.000000 -1.082532
v -0.437500 0.216506 -0.757772
v -0.437500 -0.216506 -0.757772
v -1.082532 0.000000 -0.625000
v -0.757772 0.216506 -0.437500
v -0.757772 -0.216506 -0.437500
v -1.250000 0.000000 -0.000000
v -0.875000 0.216506 -0.000000
v -0.875000 -0.216506 -0.000000
v -1.082532 0.000000 0.625000
v -0.757772 0.216506 0.437500
v -0.757772 -0.216506 0.437500
v -0.625000 0.000000 1.082532
v -0.437500 0.216506 0.757772
v -0.437500 -0.216506 0.757772
v 0.000000 0.000000 1.250000
v 0.000000 0.216506 0.875000
v 0.000000 -0.216506 0.875000
v 0.625000 0.000000 1.082532
v 0.437500 0.216506 0.757772
v 0.437500 -0.216506 0.757772
v 1.082532 0.000000 0.625000
v 0.757772 0.216506 0.437500
v 0.757772 -0.216506 0.437500
vt 0.583333 0.833333
vt 0.500000 0.833333
vt 0.500000 0.500000
vt 0.583333 0.500000
vt 0.750000 0.833333
vt 0.750000 0.166667
vt 0.666667 0.166667
vt 0.666667 0.833333
vt 0.500000 0.166667
vt 0.583333 0.166667
vt 0.000000 0.833333
vt 0.000000 0.166667
vt 0.916667 0.166667
vt 0.916667 0.833333
vt 0.666667 0.500000
vt 0.750000 0.500000
vt 0.833333 0.833333
vt 0.833333 0.500000
vt 0.083333 0.833333
vt 0.083333 0.166667
vt 1.000000 0.166667
vt 1.000000 0.833333
vt 0.833333 0.166667
vt 0.916667 0.500000
vt 0.166667 0.833333
vt 0.166667 0.166667
vt 0.000000 0.500000
vt 0.083333 0.500000
vt 1.000000 0.500000
vt 0.166667 0.500000
vt 0.250000 0.500000
vt 0.250000 0.833333
vt 0.250000 0.166667
vt 0.333333 0.833333
vt 0.333333 0.166667
vt 0.416667 0.500000
vt 0.416667 0.833333
vt 0.333333 0.500000
vt 0.416667 0.166667
vn 0.4956 0.8584 -0.1328
vn -0.2588 0.0000 0.9659
vn -0.9659 0.0000 0.2588
vn 0.4956 -0.8584 -0.1328
vn 0.9659 0.0000 0.2588
vn 0.3628 0.8584 -0.3628
vn 0.1328 -0.8584 -0.4956
vn -0.1328 0.8584 -0.4956
vn 0.9659 0.0000 -0.2588
vn -0.1328 -0.8584 -0.4956
vn -0.3628 0.8584 -0.3628
vn 0.7071 0.0000 -0.7071
vn -0.3628 -0.8584 -0.3628
vn -0.4956 0.8584 -0.1328
vn -0.4956 -0.8584 -0.1328
vn -0.4956 0.8584 0.1328
vn -0.4956 -0.8584 0.1328
vn -0.3628 -0.8584 0.3628
vn -0.1328 0.8584 0.4956
vn -0.1328 -0.8584 0.4956
vn -0.2588 0.0000 -0.9659
vn 0.3628 0.8584 0.3628
vn 0.1328 -0.8584 0.4956
vn -0.7071 0.0000 -0.7071
vn 0.3628 -0.8584 0.3628
vn 0.2588 0.0000 0.9659
vn 0.4956 0.8584 0.1328
vn -0.7071 0.0000 0.7071
vn 0.4956 -0.8584 0.1328
vn 0.3628 -0.8584 -0.3628
vn 0.7071 0.0000 0.7071
vn -0.9659 0.0000 -0.2588
vn 0.2588 0.0000 -0.9659
vn -0.3628 0.8584 0.3628
vn 0.1328 0.8584 0.4956
vn 0.1328 0.8584 -0.4956
usemtl None
s off
f 5/1/1 2/2/1 1/3/1 4/4/1
f 11/5/2 12/6/2 9/7/2 8/8/2
f 3/9/3 2/2/3 5/1/3 6/10/3
f 1/3/4 3/9/4 6/10/4 4/4/4
f 20/11/5 21/12/5 18/13/5 17/14/5
f 8/8/6 5/1/6 4/4/6 7/15/6
f 7/15/7 9/7/7 12/6/7 10/16/7
f 14/17/8 11/5/8 10/16/8 13/18/8
f 23/19/9 24/20/9 21/21/9 20/22/9
f 10/16/10 12/6/10 15/23/10 13/18/10
f 17/14/11 14/17/11 13/18/11 16/24/11
f 26/25/12 27/26/12 24/20/12 23/19/12
f 13/18/13 15/23/13 18/13/13 16/24/13
f 17/14/14 16/24/14 19/27/14 20/11/14
f 16/24/15 18/13/15 21/12/15 19/27/15
f 22/28/16 23/19/16 20/22/16 19/29/16
f 24/20/17 22/28/17 19/29/17 21/21/17
f 27/26/18 25/30/18 22/28/18 24/20/18
f 28/31/19 29/32/19 26/25/19 25/30/19
f 30/33/20 28/31/20 25/30/20 27/26/20
f 32/34/21 33/35/21 30/33/21 29/32/21
f 34/36/22 35/37/22 32/34/22 31/38/22
f 33/35/23 31/38/23 28/31/23 30/33/23
f 35/37/24 36/39/24 33/35/24 32/34/24
f 36/39/25 34/36/25 31/38/25 33/35/25
f 14/17/26 15/23/26 12/6/26 11/5/26
f 34/36/27 1/3/27 2/2/27 35/37/27
f 8/8/28 9/7/28 6/10/28 5/1/28
f 36/39/29 3/9/29 1/3/29 34/36/29
f 4/4/30 6/10/30 9/7/30 7/15/30
f 17/14/31 18/13/31 15/23/31 14/17/31
f 35/37/32 2/2/32 3/9/32 36/39/32
f 29/32/33 30/33/33 27/26/33 26/25/33
f 25/30/34 26/25/34 23/19/34 22/28/34
f 31/38/35 32/34/35 29/32/35 28/31/35
f 11/5/36 8/8/36 7/15/36 10/16/36
